<svg width="88" height="72" viewBox="0 0 88 72" fill="none" xmlns="http://www.w3.org/2000/svg">
<path d="M86.3621 40.1261L86.3623 40.1269C89.2115 49.4543 86.6188 59.014 79.6048 65.1407L79.6047 65.1407L79.5973 65.1474C75.1143 69.2247 69.2514 71.5 63.1287 71.5H17.4831C5.75338 70.6387 0.5 61.669 0.5 53.647C0.5 53.2069 0.500291 52.7906 0.541921 52.3346L0.542038 52.3346L0.542789 52.3238C1.01469 45.5321 5.25321 38.4341 13.8001 36.3492L14.2906 36.2295L14.1661 35.7402C11.6077 25.6801 13.7806 16.2713 20.3331 9.44672L20.3331 9.44669C27.8134 1.6544 39.7586 -1.44761 50.0472 1.73753L50.0493 1.73819C59.4865 4.61289 66.149 12.3367 68.5355 23.1373L68.6037 23.4464L68.9124 23.5169C73.6085 24.5893 77.7826 27.033 80.9227 30.5878L80.9277 30.5934L80.9329 30.5989C83.3855 33.2123 85.2396 36.4293 86.3621 40.1261Z" fill="#F290E7" stroke="black"/>
</svg>
