<svg version="1.1" xmlns="http://www.w3.org/2000/svg" xmlns:xlink="http://www.w3.org/1999/xlink" width="1560" height="804"><defs/><g><path fill="none" stroke="#02063B" paint-order="fill stroke markers" d=" M 20 421.5854847074775 L 21 422.5631971172346 L 22 423.5406810472353 L 23 424.5179256365571 L 24 425.49492002693677 L 25 426.47165336289123 L 26 427.44811479183784 L 27 428.4242934642152 L 28 429.4001785336038 L 29 430.3757591568461 L 30 431.35102449416746 L 31 432.32596370929645 L 32 433.3005659695851 L 33 434.2748204461294 L 34 435.2487163138897 L 35 436.22224275181077 L 36 437.1953889429423 L 37 438.16814407455877 L 38 439.1404973382798 L 39 440.1124379301903 L 40 441.08395505096036 L 41 442.05503790596526 L 42 443.02567570540555 L 43 443.9958576644267 L 44 444.96557300323923 L 45 445.9348109472382 L 46 446.903560727123 L 47 447.8718115790174 L 48 448.83955274458833 L 49 449.8067734711662 L 50 450.773463011864 L 51 451.73961062569686 L 52 452.70520557770107 L 53 453.6702371390539 L 54 454.6346945871923 L 55 455.59856720593234 L 56 456.5618442855882 L 57 457.5245151230912 L 58 458.4865690221084 L 59 459.4479952931621 L 60 460.40878325374797 L 61 461.3689222284542 L 62 462.3284015490798 L 63 463.2872105547533 L 64 464.2453385920511 L 65 465.2027750151161 L 66 466.15950918577556 L 67 467.11553047365976 L 68 468.07082825631966 L 69 469.0253919193454 L 70 469.97921085648375 L 71 470.93227446975646 L 72 471.88457216957755 L 73 472.8360933748713 L 74 473.7868275131897 L 75 474.73676402082975 L 76 475.68589234295126 L 77 476.6342019336937 L 78 477.5816822562936 L 79 478.5283227832016 L 80 479.4741129961993 L 81 480.41904238651637 L 82 481.363100454947 L 83 482.30627671196686 L 84 483.24856067784947 L 85 484.1899418827826 L 86 485.1304098669849 L 87 486.06995418082164 L 88 487.0085643849213 L 89 487.9462300502913 L 90 488.88294075843385 L 91 489.8186861014618 L 92 490.75345568221434 L 93 491.6872391143724 L 94 492.6200260225741 L 95 493.5518060425301 L 96 494.4825688211386 L 97 495.4123040166006 L 98 496.34100129853454 L 99 497.2686503480913 L 100 498.19524085806876 L 101 499.1207625330263 L 102 500.0452050893994 L 103 500.9685582556135 L 104 501.89081177219856 L 105 502.8119553919027 L 106 503.7319788798063 L 107 504.6508720134356 L 108 505.56862458287645 L 109 506.4852263908874 L 110 507.40066725301347 L 111 508.31493699769885 L 112 509.2280254664002 L 113 510.13992251369956 L 114 511.0506180074169 L 115 511.9601018287227 L 116 512.8683638722506 L 117 513.7753940462095 L 118 514.6811822724954 L 119 515.5857184868045 L 120 516.4889926387433 L 121 517.3909946919417 L 122 518.2917146241641 L 123 519.1911424274203 L 124 520.0892681080775 L 125 520.9860816869707 L 126 521.8815731995136 L 127 522.77573269581 L 128 523.6685502407634 L 129 524.5600159141879 L 130 525.4501198109189 L 131 526.338852040922 L 132 527.2262027294039 L 133 528.1121620169215 L 134 528.996720059492 L 135 529.8798670287017 L 136 530.7615931118155 L 137 531.6418885118862 L 138 532.5207434478629 L 139 533.3981481546994 L 140 534.2740928834639 L 141 535.1485679014461 L 142 536.0215634922658 L 143 536.8930699559812 L 144 537.763077609196 L 145 538.6315767851673 L 146 539.4985578339135 L 147 540.3640111223204 L 148 541.2279270342497 L 149 542.0902959706441 L 150 542.9511083496357 L 151 543.8103546066513 L 152 544.6680251945191 L 153 545.5241105835748 L 154 546.3786012617672 L 155 547.2314877347644 L 156 548.0827605260586 L 157 548.9324101770721 L 158 549.780427247262 L 159 550.626802314225 L 160 551.4715259738025 L 161 552.3145888401848 L 162 553.1559815460153 L 163 553.9956947424947 L 164 554.8337190994853 L 165 555.6700453056138 L 166 556.5046640683754 L 167 557.3375661142369 L 168 558.1687421887398 L 169 558.9981830566027 L 170 559.8258795018246 L 171 560.6518223277869 L 172 561.4760023573556 L 173 562.2984104329832 L 174 563.1190374168108 L 175 563.9378741907691 L 176 564.7549116566802 L 177 565.5701407363584 L 178 566.3835523717113 L 179 567.1951375248401 L 180 568.0048871781404 L 181 568.8127923344022 L 182 569.6188440169096 L 183 570.4230332695415 L 184 571.2253511568697 L 185 572.0257887642595 L 186 572.8243371979677 L 187 573.6209875852423 L 188 574.4157310744205 L 189 575.2085588350272 L 190 575.9994620578734 L 191 576.7884319551533 L 192 577.5754597605433 L 193 578.3605367292977 L 194 579.1436541383473 L 195 579.9248032863957 L 196 580.7039754940157 L 197 581.4811621037466 L 198 582.2563544801895 L 199 583.0295440101038 L 200 583.8007221025027 L 201 584.5698801887486 L 202 585.3370097226484 L 203 586.1021021805486 L 204 586.8651490614297 L 205 587.626141887001 L 206 588.3850722017944 L 207 589.1419315732585 L 208 589.8967115918529 L 209 590.6494038711403 L 210 591.4000000478811 L 211 592.1484917821256 L 212 592.8948707573065 L 213 593.6391286803317 L 214 594.3812572816767 L 215 595.1212483154754 L 216 595.859093559613 L 217 596.5947848158168 L 218 597.3283139097466 L 219 598.0596726910871 L 220 598.788853033637 L 221 599.5158468354 L 222 600.2406460186746 L 223 600.9632425301442 L 224 601.6836283409658 L 225 602.4017954468602 L 226 603.1177358682004 L 227 603.8314416500999 L 228 604.5429048625022 L 229 605.2521176002673 L 230 605.9590719832614 L 231 606.6637601564429 L 232 607.3661742899504 L 233 608.0663065791898 L 234 608.7641492449206 L 235 609.4596945333425 L 236 610.1529347161817 L 237 610.8438620907767 L 238 611.5324689801637 L 239 612.2187477331622 L 240 612.9026907244597 L 241 613.5842903546967 L 242 614.263539050551 L 243 614.9404292648219 L 244 615.6149534765138 L 245 616.2871041909204 L 246 616.9568739397073 L 247 617.6242552809954 L 248 618.289240799443 L 249 618.951823106329 L 250 619.6119948396349 L 251 620.2697486641258 L 252 620.9250772714327 L 253 621.5779733801332 L 254 622.2284297358331 L 255 622.8764391112461 L 256 623.5219943062746 L 257 624.1650881480899 L 258 624.8057134912115 L 259 625.4438632175863 L 260 626.0795302366689 L 261 626.7127074854985 L 262 627.3433879287791 L 263 627.9715645589565 L 264 628.5972303962969 L 265 629.2203784889643 L 266 629.8410019130972 L 267 630.4590937728863 L 268 631.0746472006504 L 269 631.6876553569134 L 270 632.2981114304802 L 271 632.9060086385113 L 272 633.5113402265998 L 273 634.1140994688454 L 274 634.7142796679294 L 275 635.3118741551889 L 276 635.9068762906916 L 277 636.4992794633085 L 278 637.0890770907886 L 279 637.6762626198305 L 280 638.2608295261568 L 281 638.8427713145859 L 282 639.4220815191036 L 283 639.9987537029359 L 284 640.57278145862 L 285 641.1441584080759 L 286 641.7128782026764 L 287 642.2789345233185 L 288 642.8423210804935 L 289 643.4030316143565 L 290 643.9610598947963 L 291 644.5163997215043 L 292 645.0690449240437 L 293 645.6189893619181 L 294 646.1662269246393 L 295 646.7107515317955 L 296 647.252557133119 L 297 647.791637708553 L 298 648.327987268319 L 299 648.861599852983 L 300 649.3924695335215 L 301 649.9205904113884 L 302 650.445956618579 L 303 650.9685623176965 L 304 651.4884017020163 L 305 652.0054689955507 L 306 652.5197584531127 L 307 653.0312643603804 L 308 653.53998103396 L 309 654.0459028214494 L 310 654.5490241015004 L 311 655.049339283882 L 312 655.5468428095414 L 313 656.0415291506672 L 314 656.5333928107492 L 315 657.0224283246409 L 316 657.5086302586194 L 317 657.9919932104459 L 318 658.4725118094259 L 319 658.9501807164689 L 320 659.4249946241475 L 321 659.8969482567563 L 322 660.3660363703713 L 323 660.8322537529068 L 324 661.2955952241746 L 325 661.7560556359408 L 326 662.2136298719836 L 327 662.6683128481493 L 328 663.1200995124095 L 329 663.5689848449172 L 330 664.014963858062 L 331 664.4580315965263 L 332 664.8981831373396 L 333 665.335413589934 L 334 665.7697180961977 L 335 666.2010918305295 L 336 666.6295299998925 L 337 667.0550278438668 L 338 667.4775806347031 L 339 667.8971836773749 L 340 668.31383230963 L 341 668.7275219020439 L 342 669.1382478580697 L 343 669.5460056140898 L 344 669.9507906394667 L 345 670.3525984365931 L 346 670.7514245409423 L 347 671.1472645211171 L 348 671.5401139788994 L 349 671.9299685492996 L 350 672.316823900604 L 351 672.7006757344238 L 352 673.0815197857428 L 353 673.4593518229642 L 354 673.834167647958 L 355 674.205963096108 L 356 674.5747340363573 L 357 674.940476371255 L 358 675.3031860370011 L 359 675.6628590034918 L 360 676.0194912743646 L 361 676.3730788870423 L 362 676.7236179127774 L 363 677.0711044566955 L 364 677.4155346578384 L 365 677.7569046892074 L 366 678.095210757806 L 367 678.4304491046807 L 368 678.7626160049651 L 369 679.091707767919 L 370 679.4177207369708 L 371 679.7406512897571 L 372 680.0604958381645 L 373 680.3772508283676 L 374 680.6909127408699 L 375 681.0014780905424 L 376 681.3089434266619 L 377 681.6133053329503 L 378 681.9145604276116 L 379 682.2127053633703 L 380 682.5077368275076 L 381 682.7996515418995 L 382 683.088446263052 L 383 683.374117782138 L 384 683.6566629250322 L 385 683.9360785523471 L 386 684.2123615594676 L 387 684.4855088765853 L 388 684.7555174687329 L 389 685.0223843358176 L 390 685.2861065126547 L 391 685.5466810690007 L 392 685.8041051095852 L 393 686.0583757741438 L 394 686.3094902374496 L 395 686.5574457093444 L 396 686.80223943477 L 397 687.0438686937986 L 398 687.2823308016632 L 399 687.5176231087871 L 400 687.7497430008139 L 401 687.9786878986362 L 402 688.2044552584239 L 403 688.4270425716533 L 404 688.6464473651341 L 405 688.8626672010378 L 406 689.0756996769237 L 407 689.2855424257668 L 408 689.4921931159829 L 409 689.6956494514556 L 410 689.8959091715608 L 411 690.0929700511927 L 412 690.2868299007878 L 413 690.47748656635 L 414 690.6649379294738 L 415 690.8491819073681 L 416 691.0302164528796 L 417 691.2080395545154 L 418 691.3826492364647 L 419 691.5540435586217 L 420 691.7222206166073 L 421 691.8871785417889 L 422 692.0489155013023 L 423 692.207429698072 L 424 692.3627193708307 L 425 692.5147827941393 L 426 692.6636182784056 L 427 692.8092241699037 L 428 692.9515988507917 L 429 693.0907407391303 L 430 693.2266482888998 L 431 693.3593199900179 L 432 693.4887543683558 L 433 693.6149499857552 L 434 693.7379054400437 L 435 693.857619365051 L 436 693.9740904306236 L 437 694.0873173426396 L 438 694.1972988430236 L 439 694.3040337097599 L 440 694.4075207569066 L 441 694.5077588346088 L 442 694.604746829111 L 443 694.69848366277 L 444 694.7889682940662 L 445 694.8761997176158 L 446 694.9601769641816 L 447 695.0408991006841 L 448 695.1183652302115 L 449 695.1925744920296 L 450 695.2635260615921 L 451 695.3312191505486 L 452 695.3956530067546 L 453 695.4568269142792 L 454 695.5147401934125 L 455 695.5693922006747 L 456 695.6207823288214 L 457 695.668910006852 L 458 695.7137747000149 L 459 695.7553759098139 L 460 695.793713174014 L 461 695.8287860666458 L 462 695.8605941980109 L 463 695.8891372146859 L 464 695.9144147995264 L 465 695.9364266716709 L 466 695.9551725865431 L 467 695.9706523358552 L 468 695.98286574761 L 469 695.9918126861035 L 470 695.997493051925 L 471 695.9999067819595 L 472 695.9990538493876 L 473 695.9949342636867 L 474 695.9875480706296 L 475 695.9768953522853 L 476 695.962976227017 L 477 695.9457908494815 L 478 695.9253394106274 L 479 695.9016221376928 L 480 695.8746392942026 L 481 695.8443911799657 L 482 695.8108781310722 L 483 695.7741005198889 L 484 695.7340587550555 L 485 695.69075328148 L 486 695.644184580334 L 487 695.5943531690472 L 488 695.5412596013011 L 489 695.484904467024 L 490 695.4252883923832 L 491 695.362412039779 L 492 695.296276107837 L 493 695.2268813314001 L 494 695.1542284815209 L 495 695.0783183654521 L 496 694.999151826639 L 497 694.9167297447088 L 498 694.8310530354618 L 499 694.7421226508603 L 500 694.6499395790189 L 501 694.5545048441929 L 502 694.4558195067675 L 503 694.3538846632451 L 504 694.2487014462343 L 505 694.1402710244363 L 506 694.0285946026324 L 507 693.9136734216709 L 508 693.7955087584521 L 509 693.6741019259159 L 510 693.5494542730257 L 511 693.4215671847543 L 512 693.2904420820678 L 513 693.1560804219105 L 514 693.0184836971883 L 515 692.8776534367526 L 516 692.7335912053823 L 517 692.5862986037673 L 518 692.4357772684909 L 519 692.2820288720106 L 520 692.1250551226404 L 521 691.9648577645314 L 522 691.8014385776528 L 523 691.6347993777713 L 524 691.4649420164321 L 525 691.2918683809374 L 526 691.1155803943259 L 527 690.9360800153511 L 528 690.7533692384598 L 529 690.5674500937699 L 530 690.3783246470477 L 531 690.1859949996854 L 532 689.9904632886767 L 533 689.7917316865943 L 534 689.5898024015651 L 535 689.3846776772458 L 536 689.1763597927977 L 537 688.9648510628622 L 538 688.7501538375336 L 539 688.5322705023348 L 540 688.3112034781893 L 541 688.0869552213953 L 542 687.8595282235976 L 543 687.6289250117607 L 544 687.3951481481399 L 545 687.1582002302537 L 546 686.9180838908542 L 547 686.6748017978982 L 548 686.4283566545178 L 549 686.1787511989894 L 550 685.9259882047049 L 551 685.6700704801392 L 552 685.4110008688197 L 553 685.1487822492954 L 554 684.8834175351035 L 555 684.6149096747381 L 556 684.3432616516175 L 557 684.0684764840497 L 558 683.7905572252007 L 559 683.5095069630595 L 560 683.2253288204038 L 561 682.9380259547655 L 562 682.6476015583958 L 563 682.3540588582296 L 564 682.057401115849 L 565 681.7576316274485 L 566 681.454753723797 L 567 681.1487707702013 L 568 680.839686166469 L 569 680.5275033468703 L 570 680.2122257800999 L 571 679.8938569692386 L 572 679.5724004517144 L 573 679.2478597992631 L 574 678.9202386178886 L 575 678.5895405478229 L 576 678.2557692634855 L 577 677.918928473443 L 578 677.579021920367 L 579 677.236053380994 L 580 676.8900266660817 L 581 676.5409456203677 L 582 676.188814122527 L 583 675.8336360851279 L 584 675.4754154545897 L 585 675.1141562111376 L 586 674.7498623687596 L 587 674.3825379751615 L 588 674.0121871117215 L 589 673.6388138934453 L 590 673.2624224689205 L 591 672.8830170202702 L 592 672.5006017631065 L 593 672.115180946484 L 594 671.7267588528521 L 595 671.3353397980079 L 596 670.9409281310479 L 597 670.5435282343202 L 598 670.1431445233748 L 599 669.7397814469157 L 600 669.3334434867504 L 601 668.9241351577413 L 602 668.5118610077543 L 603 668.0966256176091 L 604 667.678433601028 L 605 667.2572896045847 L 606 666.8331983076524 L 607 666.4061644223525 L 608 665.9761926935015 L 609 665.5432878985587 L 610 665.1074548475726 L 611 664.6686983831285 L 612 664.2270233802935 L 613 663.7824347465635 L 614 663.334937421807 L 615 662.8845363782124 L 616 662.4312366202308 L 617 661.9750431845218 L 618 661.5159611398964 L 619 661.0539955872616 L 620 660.5891516595632 L 621 660.121434521729 L 622 659.6508493706112 L 623 659.1774014349289 L 624 658.7010959752099 L 625 658.221938283732 L 626 657.7399336844649 L 627 657.25508753301 L 628 656.7674052165421 L 629 656.2768921537483 L 630 655.7835537947689 L 631 655.2873956211359 L 632 654.7884231457132 L 633 654.2866419126337 L 634 653.7820574972399 L 635 653.2746755060197 L 636 652.7645015765456 L 637 652.2515413774117 L 638 651.7358006081705 L 639 651.2172849992695 L 640 650.6960003119881 L 641 650.1719523383729 L 642 649.6451469011738 L 643 649.1155898537792 L 644 648.5832870801507 L 645 648.0482444947584 L 646 647.5104680425139 L 647 646.969963698706 L 648 646.4267374689329 L 649 645.8807953890357 L 650 645.3321435250324 L 651 644.7807879730487 L 652 644.226734859252 L 653 643.6699903397823 L 654 643.110560600684 L 655 642.5484518578373 L 656 641.9836703568893 L 657 641.416222373184 L 658 640.8461142116932 L 659 640.2733522069462 L 660 639.6979427229595 L 661 639.1198921531658 L 662 638.5392069203431 L 663 637.9558934765437 L 664 637.369958303022 L 665 636.7814079101631 L 666 636.1902488374094 L 667 635.5964876531892 L 668 635.0001309548427 L 669 634.4011853685494 L 670 633.7996575492541 L 671 633.1955541805929 L 672 632.5888819748194 L 673 631.9796476727297 L 674 631.3678580435874 L 675 630.7535198850488 L 676 630.1366400230871 L 677 629.5172253119167 L 678 628.8952826339171 L 679 628.2708188995556 L 680 627.6438410473121 L 681 627.0143560436005 L 682 626.3823708826924 L 683 625.7478925866385 L 684 625.110928205191 L 685 624.4714848157257 L 686 623.8295695231621 L 687 623.1851894598863 L 688 622.5383517856695 L 689 621.8890636875909 L 690 621.2373323799558 L 691 620.5831651042163 L 692 619.9265691288912 L 693 619.2675517494845 L 694 618.6061202884046 L 695 617.9422820948834 L 696 617.2760445448939 L 697 616.6074150410686 L 698 615.9364010126175 L 699 615.263009915245 L 700 614.5872492310674 L 701 613.9091264685301 L 702 613.2286491623231 L 703 612.5458248732987 L 704 611.8606611883861 L 705 611.1731657205082 L 706 610.4833461084967 L 707 609.7912100170066 L 708 609.0967651364318 L 709 608.4000191828195 L 710 607.7009798977841 L 711 606.9996550484217 L 712 606.2960524272233 L 713 605.5901798519889 L 714 604.8820451657393 L 715 604.1716562366307 L 716 603.4590209578662 L 717 602.7441472476081 L 718 602.0270430488902 L 719 601.3077163295299 L 720 600.5861750820384 L 721 599.8624273235336 L 722 599.1364810956496 L 723 598.4083444644483 L 724 597.6780255203292 L 725 596.9455323779398 L 726 596.210873176085 L 727 595.4740560776374 L 728 594.7350892694461 L 729 593.9939809622458 L 730 593.2507393905657 L 731 592.5053728126377 L 732 591.757889510305 L 733 591.00829778893 L 734 590.2566059773019 L 735 589.5028224275441 L 736 588.7469555150218 L 737 587.9890136382484 L 738 587.2290052187923 L 739 586.466938701184 L 740 585.7028225528212 L 741 584.9366652638755 L 742 584.1684753471981 L 743 583.3982613382241 L 744 582.6260317948793 L 745 581.8517952974839 L 746 581.0755604486577 L 747 580.2973358732245 L 748 579.5171302181161 L 749 578.7349521522758 L 750 577.9508103665632 L 751 577.1647135736567 L 752 576.3766705079571 L 753 575.5866899254904 L 754 574.7947806038103 L 755 574.0009513419012 L 756 573.2052109600801 L 757 572.4075682998986 L 758 571.6080322240446 L 759 570.8066116162444 L 760 570.0033153811628 L 761 569.1981524443053 L 762 568.3911317519187 L 763 567.582262270891 L 764 566.7715529886527 L 765 565.9590129130765 L 766 565.144651072377 L 767 564.3284765150106 L 768 563.5104983095753 L 769 562.6907255447092 L 770 561.8691673289902 L 771 561.0458327908347 L 772 560.2207310783954 L 773 559.3938713594608 L 774 558.5652628213527 L 775 557.7349146708239 L 776 556.9028361339566 L 777 556.0690364560592 L 778 555.233524901564 L 779 554.3963107539241 L 780 553.5574033155104 L 781 552.716811907508 L 782 551.8745458698129 L 783 551.0306145609277 L 784 550.1850273578584 L 785 549.3377936560096 L 786 548.4889228690805 L 787 547.63842442896 L 788 546.786307785622 L 789 545.9325824070203 L 790 545.0772577789837 L 791 544.2203434051105 L 792 543.3618488066626 L 793 542.5017835224601 L 794 541.6401571087752 L 795 540.7769791392254 L 796 539.9122592046688 L 797 539.0460069130952 L 798 538.1782318895215 L 799 537.3089437758833 L 800 536.4381522309287 L 801 535.5658669301101 L 802 534.6920975654775 L 803 533.8168538455704 L 804 532.9401454953102 L 805 532.0619822558915 L 806 531.1823738846747 L 807 530.3013301550772 L 808 529.4188608564644 L 809 528.5349757940421 L 810 527.649684788746 L 811 526.7629976771339 L 812 525.8749243112755 L 813 524.9854745586438 L 814 524.0946583020043 L 815 523.2024854393065 L 816 522.3089658835731 L 817 521.4141095627899 L 818 520.5179264197955 L 819 519.6204264121714 L 820 518.7216195121305 L 821 517.8215157064069 L 822 516.920124996145 L 823 516.0174573967877 L 824 515.1135229379655 L 825 514.2083316633855 L 826 513.3018936307193 L 827 512.3942189114911 L 828 511.48531759096636 L 829 510.57519976803917 L 830 509.66387555512046 L 831 508.7513550780255 L 832 507.8376484758612 L 833 506.9227659009139 L 834 506.00671751853605 L 835 505.08951350703353 L 836 504.17116405755263 L 837 503.2516793739667 L 838 502.3310696727627 L 839 501.40934518292784 L 840 500.4865161458361 L 841 499.5625928151336 L 842 498.63758545662574 L 843 497.71150434816263 L 844 496.7843597795248 L 845 495.85616205230895 L 846 494.9269214798138 L 847 493.99664838692485 L 848 493.0653531100002 L 849 492.13304599675575 L 850 491.19973740614967 L 851 490.26543770826805 L 852 489.3301572842087 L 853 488.39390652596694 L 854 487.4566958363192 L 855 486.51853562870804 L 856 485.57943632712613 L 857 484.63940836600057 L 858 483.6984621900765 L 859 482.756608254302 L 860 481.8138570237111 L 861 480.87021897330766 L 862 479.9257045879493 L 863 478.9803243622307 L 864 478.0340888003666 L 865 477.08700841607583 L 866 476.139093732464 L 867 475.1903552819069 L 868 474.24080360593285 L 869 473.29044925510664 L 870 472.3393027889108 L 871 471.38737477562995 L 872 470.43467579223204 L 873 469.48121642425167 L 874 468.52700726567195 L 875 467.5720589188071 L 876 466.6163819941844 L 877 465.65998711042647 L 878 464.7028848941334 L 879 463.7450859797643 L 880 462.7866010095198 L 881 461.8274406332226 L 882 460.8676155082005 L 883 459.90713629916735 L 884 458.94601367810435 L 885 457.98425832414193 L 886 457.0218809234409 L 887 456.0588921690733 L 888 455.0953027609045 L 889 454.13112340547343 L 890 453.1663648158742 L 891 452.20103771163673 L 892 451.23515281860796 L 893 450.2687208688321 L 894 449.301752600432 L 895 448.3342587574897 L 896 447.3662500899267 L 897 446.3977373533851 L 898 445.42873130910755 L 899 444.4592427238176 L 900 443.48928236960097 L 901 442.51886102378484 L 902 441.54798946881857 L 903 440.57667849215414 L 904 439.60493888612547 L 905 438.63278144782936 L 906 437.66021697900516 L 907 436.6872562859147 L 908 435.7139101792224 L 909 434.7401894738751 L 910 433.76610498898145 L 911 432.7916675476925 L 912 431.81688797708097 L 913 430.84177710802084 L 914 429.8663457750674 L 915 428.8906048163365 L 916 427.91456507338427 L 917 426.9382373910867 L 918 425.9616326175191 L 919 424.98476160383564 L 920 424.0076352041486 L 921 423.03026427540806 L 922 422.05265967728064 L 923 421.0748322720298 L 924 420.09679292439444 L 925 419.11855250146834 L 926 418.1401218725795 L 927 417.1615119091692 L 928 416.18273348467136 L 929 415.2037974743919 L 930 414.2247147553874 L 931 413.24549620634474 L 932 412.26615270746004 L 933 411.2866951403174 L 934 410.3071343877688 L 935 409.32748133381244 L 936 408.3477468634722 L 937 407.36794186267656 L 938 406.3880772181378 L 939 405.40816381723056 L 940 404.42821254787145 L 941 403.44823429839795 L 942 402.4682399574471 L 943 401.48824041383494 L 944 400.5082465564352 L 945 399.5282692740583 L 946 398.54831945533067 L 947 397.5684079885736 L 948 396.58854576168216 L 949 395.6087436620044 L 950 394.6290125762203 L 951 393.6493633902205 L 952 392.669806988986 L 953 391.6903542564667 L 954 390.7110160754608 L 955 389.73180332749354 L 956 388.75272689269633 L 957 387.77379764968623 L 958 386.7950264754448 L 959 385.8164242451972 L 960 384.83800183229147 L 961 383.85977010807784 L 962 382.8817399417874 L 963 381.90392220041196 L 964 380.9263277485831 L 965 379.9489674484514 L 966 378.97185215956563 L 967 377.9949927387524 L 968 377.0184000399949 L 969 376.04208491431336 L 970 375.0660582096435 L 971 374.0903307707164 L 972 373.11491343893806 L 973 372.1398170522689 L 974 371.16505244510296 L 975 370.1906304481481 L 976 369.21656188830553 L 977 368.24285758854916 L 978 367.2695283678057 L 979 366.2965850408341 L 980 365.3240384181058 L 981 364.35189930568436 L 982 363.3801785051056 L 983 362.40888681325725 L 984 361.4380350222593 L 985 360.4676339193437 L 986 359.49769428673505 L 987 358.5282269015304 L 988 357.55924253557953 L 989 356.59075195536553 L 990 355.62276592188505 L 991 354.65529519052814 L 992 353.68835051095976 L 993 352.7219426269998 L 994 351.7560822765037 L 995 350.7907801912432 L 996 349.82604709678714 L 997 348.86189371238197 L 998 347.89833075083334 L 999 346.9353689183865 L 1000 345.9730189146073 L 1001 345.0112914322639 L 1002 344.0501971572071 L 1003 343.08974676825227 L 1004 342.12995093706064 L 1005 341.17082032802045 L 1006 340.2123655981286 L 1007 339.2545973968723 L 1008 338.2975263661104 L 1009 337.3411631399557 L 1010 336.3855183446565 L 1011 335.43060259847834 L 1012 334.4764265115865 L 1013 333.52300068592774 L 1014 332.57033571511226 L 1015 331.6184421842968 L 1016 330.66733067006635 L 1017 329.7170117403167 L 1018 328.7674959541375 L 1019 327.8187938616943 L 1020 326.8709160041116 L 1021 325.9238729133559 L 1022 324.97767511211856 L 1023 324.03233311369866 L 1024 323.0878574218864 L 1025 322.1442585308466 L 1026 321.20154692500154 L 1027 320.2597330789149 L 1028 319.3188274571753 L 1029 318.37884051428 L 1030 317.43978269451884 L 1031 316.50166443185765 L 1032 315.5644961498231 L 1033 314.6282882613866 L 1034 313.6930511688483 L 1035 312.75879526372177 L 1036 311.8255309266188 L 1037 310.8932685271333 L 1038 309.96201842372676 L 1039 309.0317909636131 L 1040 308.1025964826434 L 1041 307.17444530519117 L 1042 306.24734774403794 L 1043 305.32131410025784 L 1044 304.39635466310415 L 1045 303.47247970989457 L 1046 302.5496995058968 L 1047 301.62802430421465 L 1048 300.7074643456744 L 1049 299.7880298587103 L 1050 298.86973105925176 L 1051 297.9525781506093 L 1052 297.0365813233615 L 1053 296.12175075524135 L 1054 295.20809661102345 L 1055 294.2956290424112 L 1056 293.38435818792374 L 1057 292.4742941727834 L 1058 291.56544710880326 L 1059 290.6578270942747 L 1060 289.75144421385505 L 1061 288.846308538456 L 1062 287.9424301251313 L 1063 287.0398190169651 L 1064 286.1384852429604 L 1065 285.23843881792783 L 1066 284.33968974237365 L 1067 283.44224800238965 L 1068 282.54612356954146 L 1069 281.65132640075797 L 1070 280.7578664382208 L 1071 279.8657536092537 L 1072 278.97499782621213 L 1073 278.0856089863734 L 1074 277.1975969718267 L 1075 276.310971649363 L 1076 275.42574287036575 L 1077 274.541920470701 L 1078 273.6595142706086 L 1079 272.7785340745928 L 1080 271.8989896713134 L 1081 271.02089083347687 L 1082 270.1442473177283 L 1083 269.2690688645416 L 1084 268.39536519811315 L 1085 267.5231460262524 L 1086 266.6524210402745 L 1087 265.78319991489263 L 1088 264.91549230811034 L 1089 264.04930786111424 L 1090 263.1846561981671 L 1091 262.3215469265007 L 1092 261.45998963620923 L 1093 260.5999939001425 L 1094 259.7415692738001 L 1095 258.88472529522437 L 1096 258.02947148489517 L 1097 257.17581734562384 L 1098 256.3237723624476 L 1099 255.47334600252415 L 1100 254.62454771502664 L 1101 253.77738693103822 L 1102 252.93187306344785 L 1103 252.08801550684538 L 1104 251.2458236374172 L 1105 250.40530681284218 L 1106 249.56647437218732 L 1107 248.7293356358045 L 1108 247.89389990522665 L 1109 247.06017646306438 L 1110 246.22817457290293 L 1111 245.39790347919933 L 1112 244.56937240717917 L 1113 243.74259056273485 L 1114 242.91756713232272 L 1115 242.09431128286138 L 1116 241.27283216162957 L 1117 240.45313889616472 L 1118 239.63524059416113 L 1119 238.8191463433694 L 1120 238.00486521149503 L 1121 237.19240624609782 L 1122 236.3817784744912 L 1123 235.5729909036422 L 1124 234.76605252007082 L 1125 233.96097228975094 L 1126 233.15775915801015 L 1127 232.35642204943053 L 1128 231.55696986774961 L 1129 230.759411495761 L 1130 229.96375579521626 L 1131 229.17001160672606 L 1132 228.37818774966215 L 1133 227.58829302205925 L 1134 226.80033620051742 L 1135 226.0143260401041 L 1136 225.23027127425757 L 1137 224.4481806146894 L 1138 223.66806275128772 L 1139 222.88992635202075 L 1140 222.11378006284065 L 1141 221.3396325075868 L 1142 220.56749228789093 L 1143 219.7973679830808 L 1144 219.02926815008524 L 1145 218.26320132333896 L 1146 217.49917601468778 L 1147 216.73720071329367 L 1148 215.97728388554125 L 1149 215.21943397494297 L 1150 214.46365940204555 L 1151 213.7099685643366 L 1152 212.9583698361508 L 1153 212.20887156857754 L 1154 211.4614820893676 L 1155 210.7162097028408 L 1156 209.9730626897938 L 1157 209.23204930740812 L 1158 208.49317778915795 L 1159 207.75645634471928 L 1160 207.02189315987843 L 1161 206.28949639644097 L 1162 205.55927419214117 L 1163 204.83123466055162 L 1164 204.10538589099286 L 1165 203.3817359484438 L 1166 202.66029287345194 L 1167 201.94106468204396 L 1168 201.22405936563686 L 1169 200.5092848909491 L 1170 199.79674919991172 L 1171 199.0864602095807 L 1172 198.3784258120487 L 1173 197.67265387435725 L 1174 196.9691522384095 L 1175 196.2679287208831 L 1176 195.5689911131432 L 1177 194.87234718115602 L 1178 194.17800466540254 L 1179 193.48597128079248 L 1180 192.79625471657866 L 1181 192.10886263627108 L 1182 191.42380267755266 L 1183 190.74108245219364 L 1184 190.06070954596723 L 1185 189.38269151856542 L 1186 188.70703590351496 L 1187 188.03375020809338 L 1188 187.36284191324594 L 1189 186.69431847350236 L 1190 186.028187316894 L 1191 185.36445584487132 L 1192 184.70313143222168 L 1193 184.04422142698712 L 1194 183.38773315038327 L 1195 182.73367389671753 L 1196 182.0820509333082 L 1197 181.43287150040385 L 1198 180.7861428111025 L 1199 180.14187205127178 L 1200 179.5000663794691 L 1201 178.86073292686208 L 1202 178.22387879714893 L 1203 177.58951106648044 L 1204 176.95763678338005 L 1205 176.328262968667 L 1206 175.701396615377 L 1207 175.07704468868516 L 1208 174.45521412582903 L 1209 173.8359118360303 L 1210 173.21914470041955 L 1211 172.60491957195828 L 1212 171.99324327536408 L 1213 171.38412260703385 L 1214 170.7775643349686 L 1215 170.17357519869867 L 1216 169.572161909208 L 1217 168.97333114886067 L 1218 168.37708957132534 L 1219 167.78344380150222 L 1220 167.1924004354496 L 1221 166.60396604030961 L 1222 166.01814715423646 L 1223 165.43495028632248 L 1224 164.85438191652727 L 1225 164.27644849560434 L 1226 163.70115644503002 L 1227 163.12851215693263 L 1228 162.55852199402025 L 1229 161.99119228951136 L 1230 161.4265293470634 L 1231 160.864539440703 L 1232 160.30522881475704 L 1233 159.74860368378202 L 1234 159.19467023249612 L 1235 158.64343461570965 L 1236 158.09490295825697 L 1237 157.54908135492892 L 1238 157.0059758704041 L 1239 156.46559253918252 L 1240 155.92793736551766 L 1241 155.39301632335057 L 1242 154.8608353562428 L 1243 154.3314003773106 L 1244 153.80471726915962 L 1245 153.28079188381872 L 1246 152.759630042676 L 1247 152.24123753641302 L 1248 151.72562012494112 L 1249 151.21278353733751 L 1250 150.70273347178104 L 1251 150.19547559548965 L 1252 149.69101554465664 L 1253 149.18935892438833 L 1254 148.69051130864227 L 1255 148.19447824016441 L 1256 147.70126523042836 L 1257 147.21087775957338 L 1258 146.72332127634436 L 1259 146.2386011980304 L 1260 145.75672291040507 L 1261 145.27769176766685 L 1262 144.80151309237874 L 1263 144.32819217541038 L 1264 143.85773427587804 L 1265 143.39014462108668 L 1266 142.92542840647235 L 1267 142.4635907955436 L 1268 142.00463691982492 L 1269 141.54857187879878 L 1270 141.09540073985016 L 1271 140.64512853820918 L 1272 140.1977602768954 L 1273 139.75330092666297 L 1274 139.31175542594445 L 1275 138.87312868079647 L 1276 138.43742556484494 L 1277 138.00465091923104 L 1278 137.57480955255778 L 1279 137.14790624083554 L 1280 136.72394572743042 L 1281 136.30293272301026 L 1282 135.88487190549284 L 1283 135.46976791999435 L 1284 135.05762537877678 L 1285 134.64844886119772 L 1286 134.2422429136584 L 1287 133.83901204955436 L 1288 133.4387607492243 L 1289 133.04149345990055 L 1290 132.64721459566027 L 1291 132.2559285373755 L 1292 131.86763963266526 L 1293 131.48235219584666 L 1294 131.1000705078871 L 1295 130.72079881635722 L 1296 130.34454133538276 L 1297 129.97130224559874 L 1298 129.60108569410215 L 1299 129.23389579440658 L 1300 128.869736626396 L 1301 128.50861223627942 L 1302 128.15052663654672 L 1303 127.79548380592274 L 1304 127.4434876893244 L 1305 127.094542197816 L 1306 126.74865120856595 L 1307 126.40581856480406 L 1308 126.06604807577827 L 1309 125.7293435167129 L 1310 125.39570862876622 L 1311 125.06514711898893 L 1312 124.73766266028349 L 1313 124.4132588913626 L 1314 124.09193941670941 L 1315 123.77370780653672 L 1316 123.45856759674842 L 1317 123.14652228889884 L 1318 122.83757535015496 L 1319 122.53173021325745 L 1320 122.22899027648225 L 1321 121.9293589036036 L 1322 121.63283942385573 L 1323 121.33943513189638 L 1324 121.04914928777043 L 1325 120.761985116873 L 1326 120.47794580991427 L 1327 120.1970345228836 L 1328 119.91925437701445 L 1329 119.64460845875027 L 1330 119.3730998197093 L 1331 119.1047314766517 L 1332 118.83950641144492 L 1333 118.57742757103154 L 1334 118.31849786739599 L 1335 118.06272017753219 L 1336 117.810097343412 L 1337 117.56063217195299 L 1338 117.31432743498812 L 1339 117.07118586923394 L 1340 116.83121017626092 L 1341 116.59440302246327 L 1342 116.36076703902904 L 1343 116.1303048219113 L 1344 115.9030189317989 L 1345 115.67891189408834 L 1346 115.45798619885556 L 1347 115.24024430082807 L 1348 115.02568861935822 L 1349 114.81432153839563 L 1350 114.60614540646145 L 1351 114.4011625366216 L 1352 114.19937520646135 L 1353 114.00078565806012 L 1354 113.80539609796642 L 1355 113.61320869717338 L 1356 113.42422559109451 L 1357 113.2384488795401 L 1358 113.05588062669409 L 1359 112.87652286109062 L 1360 112.70037757559203 L 1361 112.52744672736617 L 1362 112.35773223786532 L 1363 112.19123599280414 L 1364 112.02795984213924 L 1365 111.86790560004846 L 1366 111.7110750449105 L 1367 111.55746991928555 L 1368 111.40709192989561 L 1369 111.25994274760575 L 1370 111.11602400740526 L 1371 110.97533730838984 L 1372 110.83788421374362 L 1373 110.70366625072171 L 1374 110.57268491063354 L 1375 110.44494164882587 L 1376 110.320437884667 L 1377 110.19917500153082 L 1378 110.08115434678149 L 1379 109.96637723175832 L 1380 109.85484493176148 L 1381 109.74655868603747 L 1382 109.64151969776589 L 1383 109.53972913404539 L 1384 109.44118812588124 L 1385 109.34589776817245 L 1386 109.25385911969988 L 1387 109.16507320311416 L 1388 109.07954100492458 L 1389 108.99726347548807 L 1390 108.91824152899846 L 1391 108.84247604347667 L 1392 108.76996786076057 L 1393 108.70071778649594 L 1394 108.63472659012729 L 1395 108.57199500488946 L 1396 108.51252372779948 L 1397 108.45631341964867 L 1398 108.40336470499534 L 1399 108.35367817215814 L 1400 108.3072543732091 L 1401 108.26409382396764 L 1402 108.22419700399513 L 1403 108.18756435658906 L 1404 108.15419628877851 L 1405 108.12409317131937 L 1406 108.09725533869056 L 1407 108.0736830890898 L 1408 108.05337668443076 L 1409 108.03633635033998 L 1410 108.02256227615436 L 1411 108.01205461491895 L 1412 108.00481348338548 L 1413 108.0008389620109 L 1414 108.00013109495649 L 1415 108.00268989008748 L 1416 108.0085153189728 L 1417 108.01760731688552 L 1418 108.02996578280357 L 1419 108.04559057941071 L 1420 108.06448153309833 L 1421 108.0866384339671 L 1422 108.11206103582947 L 1423 108.14074905621237 L 1424 108.1727021763603 L 1425 108.20792004123888 L 1426 108.24640225953891 L 1427 108.28814840368057 L 1428 108.33315800981825 L 1429 108.38143057784566 L 1430 108.43296557140138 L 1431 108.48776241787505 L 1432 108.54582050841327 L 1433 108.60713919792676 L 1434 108.67171780509739 L 1435 108.73955561238569 L 1436 108.81065186603905 L 1437 108.88500577609977 L 1438 108.96261651641402 L 1439 109.04348322464108 L 1440 109.12760500226284 L 1441 109.2149809145937 L 1442 109.30560999079108 L 1443 109.39949122386616 L 1444 109.49662357069519 L 1445 109.59700595203077 L 1446 109.70063725251424 L 1447 109.80751632068763 L 1448 109.91764196900698 L 1449 110.03101297385501 L 1450 110.14762807555508 L 1451 110.26748597838508 L 1452 110.39058535059166 L 1453 110.51692482440546 L 1454 110.64650299605574 L 1455 110.7793184257863 L 1456 110.91536963787166 L 1457 111.05465512063296 L 1458 111.1971733264553 L 1459 111.34292267180439 L 1460 111.49190153724453 L 1461 111.64410826745672 L 1462 111.79954117125646 L 1463 111.95819852161316 L 1464 112.1200785556689 L 1465 112.28517947475854 L 1466 112.45349944442887 L 1467 112.6250365944598 L 1468 112.79978901888484 L 1469 112.97775477601215 L 1470 113.15893188844626 L 1471 113.34331834310996 L 1472 113.53091209126677 L 1473 113.72171104854374 L 1474 113.9157130949543 L 1475 114.11291607492223 L 1476 114.31331779730527 L 1477 114.51691603541974 L 1478 114.72370852706507 L 1479 114.93369297454899 L 1480 115.14686704471319 L 1481 115.36322836895903 L 1482 115.58277454327413 L 1483 115.80550312825869 L 1484 116.03141164915297 L 1485 116.2604975958647 L 1486 116.4927584229967 L 1487 116.72819154987565 L 1488 116.9667943605802 L 1489 117.20856420397052 L 1490 117.45349839371755 L 1491 117.70159420833278 L 1492 117.95284889119864 L 1493 118.20725965059887 L 1494 118.46482365975004 L 1495 118.72553805683236 L 1496 118.98939994502189 L 1497 119.25640639252276 L 1498 119.52655443259914 L 1499 119.79984106360916 L 1500 120.07626324903731 L 1501 120.3558179175289 L 1502 120.63850196292395 L 1503 120.92431224429129 L 1504 121.21324558596427 L 1505 121.50529877757526 L 1506 121.8004685740919 L 1507 122.09875169585285 L 1508 122.40014482860408 L 1509 122.7046446235363 L 1510 123.01224769732153 L 1511 123.32295063215099 L 1512 123.636749975773 L 1513 123.95364224153144 L 1514 124.27362390840449 L 1515 124.59669142104349 L 1516 124.92284118981274 L 1517 125.25206959082931 L 1518 125.58437296600317 L 1519 125.9197476230782 L 1520 126.25818983567251 L 1521 126.59969584332077 L 1522 126.9442618515152 L 1523 127.29188403174817 L 1524 127.64255852155452 L 1525 127.99628142455464 L 1526 128.3530488104979 L 1527 128.71285671530563 L 1528 129.0757011411161 L 1529 129.44157805632824 L 1530 129.81048339564666 L 1531 130.1824130601272 L 1532 130.5573629172216 L 1533 130.93532880082438 L 1534 131.31630651131837 L 1535 131.70029181562188 L 1536 132.0872804472355 L 1537 132.4772681062894 L 1538 132.87025045959166 L 1539 133.26622314067532" stroke-linecap="round" stroke-linejoin="round" stroke-miterlimit="10"/></g></svg>